# xmcd
# 
# Track frame offsets:
#     150
#     19275
#     40200
#     58275
#     75075
#     94350
#     116175
#     137700
#     148800
#     168600
#     193575
# 
# Disc length: 2789
# 
# Revision: 0
# Processed by: cddbd v1.5.2PL0 Copyright (c) Steve Scherf et al.
# Submitted via: BonkEnc v1.0.8
# 
DISCID=a00ae30b
DTITLE=白鳥英美子 - Heart Side〜白鳥英美子コレクション
DYEAR=1990
DGENRE=Pop
TTITLE0=ハートランド
TTITLE1=ソレアード
TTITLE2=フィールズ・オブ・セント・エティエンヌ
TTITLE3=ラブ・イン・アワ・ライブス
TTITLE4=アイズ・オブ・ラブ
TTITLE5=トラベリング・ボーイ
TTITLE6=イフ・ザ・ワールド・ハド・ア・ソング
TTITLE7=観覧車
TTITLE8=ウッドストック
TTITLE9=美しく青きドナウ
TTITLE10=アメイジング・グレイス
EXTD=
EXTT0=
EXTT1=
EXTT2=
EXTT3=
EXTT4=
EXTT5=
EXTT6=
EXTT7=
EXTT8=
EXTT9=
EXTT10=
PLAYORDER=
